<svg data-name="Layer 1" xmlns="http://www.w3.org/2000/svg" viewBox="0 0 560.85 143.96"><path d="M93 131.46q0 12.49-12.66 12.5H38Q0 144 0 105.11V46.86Q0 34.2 12.66 34.19h67Q93 34.11 93 46.77q-.13 12.33-13 12.58l-54.71-.08v16.89L63.24 76q12.83.17 12.83 13.09.08 12.33-12.58 12.33l-38.16.08v4.22q0 12.92 12.92 12.92l42.38.08Q93 118.71 93 131.46zm98.91-84.69l-34.19 88.65q-3 7.68-8 8.15a35.4 35.4 0 0 1-9.2-.25q-4.27-.72-7.81-7.89L98.87 46.6q0-12.66 12.66-12.66 8 0 10.34 4.44t23.6 67.62q21.1-63.23 23.72-67.54t10.3-4.56q12.42.04 12.42 12.87zm45.28-12.56H254q38.16 0 38.16 38.08v32.84q0 38.84-38 38.84h-17.31q-37.74 0-37.74-38v-33.6q0-38.16 38.08-38.16zm-.25 25.5q-12.5 0-12.5 12.58v33.35q0 13 12.5 13H254q12.83 0 12.83-13V71.95q0-12.24-12.83-12.24zM319.72 0q12.83 0 12.83 12.92v105.36q12.92 0 12.66 12.33 0 12.75-12.66 13l-12.66.17q-12.66-.17-12.66-12.75V12.92Q307.23 0 319.72 0zm134.55 46.77v84.51q0 12.5-12.67 12.5l-42.38-.08q-38 0-38-38.84V46.6q0-12.66 12.67-12.66t12.66 12.84v58.59q0 13 12.91 13h29.47v-71.6q0-12.84 12.91-12.84 12.43.01 12.43 12.84z" fill="#3f3837"/><path d="M556.75 55.72l-65.27 83.08q-8.28 9.46-17.9 1.18-9.29-8.7-.84-18.32l65-82.66q8.61-9.71 18.15-1.26 9.38 8.26.86 17.98zm-83.16-18q9.63-8.44 18.24 1.26l65 82.66q8.45 9.63-.84 18.32-9.63 8.27-18-1.18l-65.16-83.06q-8.53-9.72.76-17.98z" fill="#e5b432"/></svg>