<svg xmlns="http://www.w3.org/2000/svg" height="1122.52" width="1587.4"><defs><clipPath id="a" clipPathUnits="userSpaceOnUse"><path d="M0 841.89h1190.551V0H0z"/></clipPath></defs><g clip-path="url(#a)" transform="matrix(1.33333 0 0 -1.33333 0 1122.52)"><path d="M330.357 744.933c13.636 3.877 29.679-1.737 36.765-14.038 6.417-9.358 6.818-21.123 6.952-32.085-.267-93.585-.134-187.169 0-280.752-.134-9.495-.67-19.12-4.278-27.943-7.888-18.584-34.626-26.338-50.67-13.368-12.566 8.02-15.374 24.866-14.84 38.638.402 97.994-.133 196.124.268 294.12-.668 15.642 9.76 32.621 25.803 35.428" fill="#0181ff"/><path d="M330.357 744.933c13.636 3.877 29.679-1.737 36.765-14.038 6.417-9.358 6.818-21.123 6.952-32.085-.267-93.585-.134-187.169 0-280.752-.134-9.495-.67-19.12-4.278-27.943-7.888-18.584-34.626-26.338-50.67-13.368-12.566 8.02-15.374 24.866-14.84 38.638.402 97.994-.133 196.124.268 294.12-.668 15.642 9.76 32.621 25.803 35.428z" fill="none" stroke="#0181ff" stroke-width=".094" stroke-miterlimit="10"/><path d="M161.905 572.337c-13.236-.535-25.937-7.353-33.958-17.915-11.765-15.508-17.112-35.026-16.98-54.28 1.205-17.512 4.547-35.962 15.777-49.866 13.235-19.251 41.31-23.93 61.498-13.637 13.904 6.953 22.594 21.39 27.14 35.83 6.55 18.316 5.214 38.503.133 57.087-4.68 12.834-10.294 26.337-22.192 34.09-8.69 7.087-20.456 9.226-31.418 8.69M88.24 611.51c29.547 26.47 76.74 34.09 111.366 13.236a105.318 105.318 0 0 0 20.054-19.252c3.342 7.487 6.417 15.374 12.433 21.257 13.637 9.893 35.027 10.16 46.792-2.942 9.76-9.76 11.097-24.197 10.963-37.3-.134-62.3-.134-124.734 0-187.167.402-24.87-3.61-50.536-15.775-72.596-9.626-16.578-23.262-30.882-39.974-40.373-31.284-18.185-69.386-20.59-104.681-16.446-22.06 4.277-44.787 9.225-64.306 21.124-9.894 6.149-18.984 16.044-19.386 28.343.135 11.765 8.156 22.058 17.782 28.208 12.834 6.684 26.47-.4 38.904-4.68 22.193-9.226 46.525-16.712 70.857-12.967 18.449 2.404 36.096 14.305 42.648 32.086 4.946 12.299 4.01 25.802 4.41 38.772-8.822-10.162-18.582-19.921-31.015-25.403-36.097-15.108-81.953-9.092-109.895 19.519-18.717 17.646-29.28 42.514-34.225 67.38-4.946 24.867-6.15 50.937.4 75.537 6.285 28.075 20.456 54.947 42.648 73.664" fill="#0181ff"/><path d="M161.905 572.337c-13.236-.535-25.937-7.353-33.958-17.915-11.765-15.508-17.112-35.026-16.98-54.28 1.205-17.512 4.547-35.962 15.777-49.866 13.235-19.251 41.31-23.93 61.498-13.637 13.904 6.953 22.594 21.39 27.14 35.83 6.55 18.316 5.214 38.503.133 57.087-4.68 12.834-10.294 26.337-22.192 34.09-8.69 7.087-20.456 9.226-31.418 8.69zM88.24 611.509c29.547 26.47 76.74 34.09 111.366 13.236a105.318 105.318 0 0 0 20.054-19.252c3.342 7.487 6.417 15.374 12.433 21.257 13.637 9.893 35.027 10.16 46.792-2.942 9.76-9.76 11.097-24.197 10.963-37.3-.134-62.3-.134-124.734 0-187.167.402-24.87-3.61-50.536-15.775-72.596-9.626-16.578-23.262-30.882-39.974-40.373-31.284-18.185-69.386-20.59-104.681-16.446-22.06 4.277-44.787 9.225-64.306 21.124-9.894 6.149-18.984 16.044-19.386 28.343.135 11.765 8.156 22.058 17.782 28.208 12.834 6.684 26.47-.4 38.904-4.68 22.193-9.226 46.525-16.712 70.857-12.967 18.449 2.404 36.096 14.305 42.648 32.086 4.946 12.299 4.01 25.802 4.41 38.772-8.822-10.162-18.582-19.921-31.015-25.403-36.097-15.108-81.953-9.092-109.895 19.519-18.717 17.646-29.28 42.514-34.225 67.38-4.946 24.867-6.15 50.937.4 75.537 6.285 28.075 20.456 54.947 42.648 73.664z" fill="none" stroke="#0181ff" stroke-width=".094" stroke-miterlimit="10"/><path d="M506.83 572.337c-12.567-.535-25.534-5.614-33.556-15.642-21.257-25.67-23.664-63.771-10.295-93.584 7.755-18.182 25.936-31.954 45.99-31.684 20.59-1.337 38.77 12.699 46.793 30.748 11.363 21.257 10.963 46.926 4.278 69.654-4.412 12.166-10.695 24.465-21.792 31.818-8.69 7.086-20.455 9.225-31.417 8.69m0 64.306c28.744 1.069 57.488-9.36 79.279-27.808 37.567-31.017 54.145-82.89 46.926-130.483-6.284-37.3-26.471-74.331-60.027-93.451-35.43-21.39-82.088-23.53-118.853-4.277-19.118 9.625-35.696 24.464-46.926 42.646-16.98 25.4-23.13 56.819-22.327 86.9 2.808 43.717 25.936 86.9 64.039 109.628 17.246 10.963 37.7 16.042 57.889 16.845" fill="#0181ff"/><path d="M506.83 572.337c-12.567-.535-25.534-5.614-33.556-15.642-21.257-25.67-23.664-63.771-10.295-93.584 7.755-18.182 25.936-31.954 45.99-31.684 20.59-1.337 38.77 12.699 46.793 30.748 11.363 21.257 10.963 46.926 4.278 69.654-4.412 12.166-10.695 24.465-21.792 31.818-8.69 7.086-20.455 9.225-31.417 8.69zm0 64.306c28.745 1.069 57.489-9.36 79.28-27.808 37.567-31.017 54.145-82.89 46.926-130.483-6.284-37.3-26.471-74.331-60.027-93.451-35.43-21.39-82.088-23.53-118.853-4.277-19.118 9.625-35.696 24.464-46.926 42.646-16.98 25.4-23.13 56.819-22.327 86.9 2.808 43.717 25.936 86.9 64.039 109.628 17.246 10.963 37.7 16.042 57.889 16.845z" fill="none" stroke="#0181ff" stroke-width=".094" stroke-miterlimit="10"/><path d="M767.53 572.605c-13.102-.534-26.47-5.615-34.895-15.91-11.765-14.974-18.315-33.958-17.379-53.076.535-22.193 6.283-46.258 23.93-61.097 18.585-16.578 50.403-13.903 66.178 5.349 25.534 31.15 24.466 81.552-2.807 111.365-9.225 9.09-22.059 14.17-35.028 13.369m-114.173 160.83c12.433 16.446 41.177 17.114 53.344 0 8.021-8.955 8.021-21.924 8.29-33.288 0-29.011-.402-58.022-.136-87.033 34.092 27.942 86.5 32.353 122.996 6.818 25.537-16.043 40.911-43.985 49.2-72.328 5.347-22.728 9.091-46.658 4.946-69.92-3.743-27.808-16.176-54.144-34.626-75.137-17.112-18.85-40.909-31.417-66.177-34.223-28.343-4.546-59.359 6.953-75.937 30.615-3.609-7.888-6.819-16.712-13.636-22.461-16.044-10.56-41.713-7.085-50.938 10.83-5.348 8.69-5.214 19.52-5.48 29.413.132 95.857.266 191.58 0 287.437-.269 10.294 1.87 20.99 8.154 29.278" fill="#0181ff"/><path d="M767.53 572.605c-13.102-.534-26.47-5.615-34.895-15.91-11.765-14.974-18.315-33.958-17.379-53.076.535-22.193 6.283-46.258 23.93-61.097 18.585-16.578 50.403-13.903 66.178 5.349 25.534 31.15 24.466 81.552-2.807 111.365-9.225 9.09-22.059 14.17-35.028 13.369zm-114.174 160.83c12.433 16.446 41.177 17.114 53.344 0 8.021-8.955 8.021-21.924 8.29-33.288 0-29.011-.402-58.022-.136-87.033 34.092 27.942 86.5 32.353 122.996 6.818 25.537-16.043 40.911-43.985 49.2-72.328 5.347-22.728 9.091-46.658 4.946-69.92-3.743-27.808-16.176-54.144-34.626-75.137-17.112-18.85-40.909-31.417-66.177-34.223-28.343-4.546-59.359 6.953-75.937 30.615-3.609-7.888-6.819-16.712-13.636-22.461-16.044-10.56-41.713-7.085-50.938 10.83-5.348 8.69-5.214 19.52-5.48 29.413.132 95.857.266 191.58 0 287.437-.269 10.294 1.87 20.99 8.154 29.278z" fill="none" stroke="#0181ff" stroke-width=".094" stroke-miterlimit="10"/><path d="M1024.218 572.337c-12.566-.535-25.535-5.614-33.557-15.642-21.256-25.67-23.663-63.771-10.293-93.584 7.753-18.182 25.935-31.954 45.99-31.684 20.588-1.337 38.77 12.699 46.79 30.748 11.365 21.257 10.965 46.926 4.28 69.654-4.411 12.166-10.695 24.465-21.791 31.818-8.691 7.086-20.455 9.225-31.42 8.69m0 64.306c28.745 1.069 57.489-9.36 79.28-27.808 37.568-31.017 54.146-82.89 46.926-130.483-6.282-37.3-26.471-74.331-60.026-93.451-35.43-21.39-82.088-23.53-118.854-4.277-19.25 9.625-35.696 24.464-46.926 42.646-16.978 25.4-23.128 56.819-22.326 86.9 2.807 43.717 25.938 86.9 64.039 109.628 17.245 10.963 37.7 16.042 57.888 16.845" fill="#0181ff"/><path d="M1024.218 572.337c-12.566-.535-25.535-5.614-33.557-15.642-21.256-25.67-23.663-63.771-10.293-93.584 7.753-18.182 25.935-31.954 45.99-31.684 20.588-1.337 38.77 12.699 46.79 30.748 11.365 21.257 10.965 46.926 4.28 69.654-4.411 12.166-10.695 24.465-21.791 31.818-8.691 7.086-20.455 9.225-31.42 8.69zm0 64.306c28.744 1.069 57.488-9.36 79.279-27.808 37.568-31.017 54.146-82.89 46.926-130.483-6.282-37.3-26.471-74.331-60.026-93.451-35.43-21.39-82.088-23.53-118.854-4.277-19.25 9.625-35.696 24.464-46.926 42.646-16.978 25.4-23.128 56.819-22.326 86.9 2.807 43.717 25.938 86.9 64.039 109.628 17.245 10.963 37.7 16.042 57.888 16.845z" fill="none" stroke="#0181ff" stroke-width=".094" stroke-miterlimit="10"/><path d="M370.465 339.849c20.989 2.673 42.113-1.873 61.498-9.36 8.155-3.744 15.909-9.225 20.856-16.711 7.353-14.705 0-36.631-16.98-40.643-13.234-2.273-24.6 6.552-37.032 9.226-16.177 4.812-34.76 1.337-47.193-10.43-19.385-19.92-22.06-51.338-13.637-76.873 7.086-17.246 22.862-33.688 42.78-33.556 15.109-1.74 28.479 6.416 42.516 10.697 15.775 5.613 33.423-9.226 32.086-25.536.936-12.701-9.358-22.863-19.92-28.075-27.942-14.707-62.568-17.915-92.248-6.82-35.428 12.97-61.231 46.392-68.183 83.024-7.353 32.754-1.07 68.184 17.38 96.258 16.979 26.872 46.258 45.856 78.077 48.799" fill="#0181ff"/><path d="M370.465 339.849c20.989 2.673 42.113-1.873 61.498-9.36 8.155-3.744 15.909-9.225 20.856-16.711 7.353-14.705 0-36.631-16.98-40.643-13.234-2.273-24.6 6.552-37.032 9.226-16.177 4.812-34.76 1.337-47.193-10.43-19.385-19.92-22.06-51.338-13.637-76.873 7.086-17.246 22.862-33.688 42.78-33.556 15.109-1.74 28.479 6.416 42.516 10.697 15.775 5.613 33.423-9.226 32.086-25.536.936-12.701-9.358-22.863-19.92-28.075-27.942-14.707-62.568-17.915-92.248-6.82-35.428 12.97-61.231 46.392-68.183 83.024-7.353 32.754-1.07 68.184 17.38 96.258 16.979 26.872 46.258 45.856 78.077 48.799z" fill="none" stroke="#0181ff" stroke-width=".094" stroke-miterlimit="10"/><path d="M769.804 336.236c22.727 7.756 49.465 4.813 69.117-9.49 6.82-4.68 12.7-10.697 18.449-16.713 14.84 14.973 33.826 26.337 54.815 29.68 24.733 3.341 51.338-3.743 70.188-20.587 16.044-15.51 22.86-38.24 22.46-60.16.4-37.837 0-75.807.268-113.64.133-11.232-2.006-24.334-11.766-31.152-12.166-9.76-32.352-8.556-41.978 4.278-7.488 10.562-7.353 23.93-7.754 36.232-.67 33.423.4 66.846-.135 100.27-1.068 12.564-7.621 25.932-19.518 31.281-12.3 4.68-27.808 4.948-37.702-4.812-10.562-8.022-13.37-22.06-13.503-34.49-.802-35.565.669-71.26-.402-106.956.937-16.178-12.298-32.754-29.143-32.085-9.225-1.606-17.65 3.343-23.664 9.758-6.818 8.557-7.62 19.921-8.022 30.35-1.202 35.694.268 71.39-.4 106.953-.802 10.293-5.482 20.054-12.97 27.138-14.705 11.364-38.636 9.76-50.134-5.48-6.685-9.358-7.753-21.125-7.753-32.354-.268-33.42.267-66.845 0-100.268.134-8.69-1.338-18.185-7.086-25.002-10.027-13.905-33.022-15.508-44.787-2.807-8.958 9.624-9.225 23.53-9.626 35.83-.267 44.518.135 89.171-.134 133.692.535 11.497-1.068 24.065 4.28 34.76 6.549 18.581 34.626 23.796 47.726 9.09 4.01-3.743 5.483-9.226 7.354-14.17 9.224 8.822 19.519 17.112 31.82 20.854" fill="#0181ff"/><path d="M769.804 336.236c22.727 7.756 49.465 4.813 69.117-9.49 6.82-4.68 12.7-10.697 18.449-16.713 14.84 14.973 33.826 26.337 54.815 29.68 24.733 3.341 51.338-3.743 70.188-20.587 16.044-15.51 22.86-38.24 22.46-60.16.4-37.837 0-75.807.268-113.64.133-11.232-2.006-24.334-11.766-31.152-12.166-9.76-32.352-8.556-41.978 4.278-7.488 10.562-7.353 23.93-7.754 36.232-.67 33.423.4 66.846-.135 100.27-1.068 12.564-7.621 25.932-19.518 31.281-12.3 4.68-27.808 4.948-37.702-4.812-10.562-8.022-13.37-22.06-13.503-34.49-.802-35.565.669-71.26-.402-106.956.937-16.178-12.298-32.754-29.143-32.085-9.225-1.606-17.65 3.343-23.664 9.758-6.818 8.557-7.62 19.921-8.022 30.35-1.202 35.694.268 71.39-.4 106.953-.802 10.293-5.482 20.054-12.97 27.138-14.705 11.364-38.636 9.76-50.134-5.48-6.685-9.358-7.753-21.125-7.753-32.354-.268-33.42.267-66.845 0-100.268.134-8.69-1.338-18.185-7.086-25.002-10.027-13.905-33.022-15.508-44.787-2.807-8.958 9.624-9.225 23.53-9.626 35.83-.267 44.518.135 89.171-.134 133.692.535 11.497-1.068 24.065 4.28 34.76 6.549 18.581 34.626 23.796 47.726 9.09 4.01-3.743 5.483-9.226 7.354-14.17 9.224 8.822 19.519 17.112 31.82 20.854z" fill="none" stroke="#0181ff" stroke-width=".094" stroke-miterlimit="10"/><path d="M553.623 283.697c-25.402-3.343-39.707-30.749-40.643-54.146-1.871-24.333 5.883-52.542 29.012-64.574 19.117-9.092 44.653-2.407 55.482 16.177 15.507 24.732 14.974 58.425-.268 83.158-8.69 14.84-26.738 22.728-43.583 19.385m-4.01 56.151c31.684 4.144 64.439-8.557 86.096-31.687 45.322-45.186 45.456-126.874.536-172.462-35.028-35.828-96.125-40.91-136.767-11.899-36.633 26.07-53.344 74.066-46.66 117.785 6.017 35.827 27.14 70.187 60.029 87.032 11.23 6.282 24.065 9.624 36.766 11.231" fill="#0181ff"/><path d="M553.623 283.697c-25.402-3.343-39.707-30.749-40.643-54.146-1.871-24.333 5.883-52.542 29.012-64.574 19.117-9.092 44.653-2.407 55.482 16.177 15.507 24.732 14.974 58.425-.268 83.158-8.69 14.84-26.738 22.728-43.583 19.385zm-4.01 56.151c31.684 4.144 64.439-8.557 86.096-31.687 45.322-45.186 45.456-126.874.536-172.462-35.028-35.828-96.125-40.91-136.767-11.899-36.633 26.07-53.344 74.066-46.66 117.785 6.017 35.827 27.14 70.187 60.029 87.032 11.23 6.282 24.065 9.624 36.766 11.231z" fill="none" stroke="#0181ff" stroke-width=".094" stroke-miterlimit="10"/><path d="M232.762 170.06c18.984 5.48 39.706-10.695 39.572-30.082 2.54-18.048-14.171-35.428-32.086-34.626-15.91-1.337-30.347 11.899-32.887 27.138-3.343 16.712 8.823 34.494 25.4 37.57" fill="#0181ff"/><path d="M232.762 170.06c18.984 5.48 39.706-10.695 39.572-30.082 2.54-18.048-14.171-35.428-32.086-34.626-15.91-1.337-30.347 11.899-32.887 27.138-3.343 16.712 8.823 34.494 25.4 37.57z" fill="none" stroke="#0181ff" stroke-width=".094" stroke-miterlimit="10"/></g></svg>