<svg data-name="Layer 1" xmlns="http://www.w3.org/2000/svg" viewBox="0 0 460.16 575.06"><path d="M459.94 154.85a75.68 75.68 0 0 0-1.26-12.9c-1.61-9.33-5.68-17.57-12-25.3l-6.23-6.28c-17-14.47-36.35-17.8-57.19-11-22.29 7.28-38 29.88-38 53.36v96.25a19.45 19.45 0 0 1-19.17 19.69c-11.11.05-19.55-8.93-19.56-20.93V78.25c0-11.88-1.83-23.36-7-34.16-12.85-26.82-34.65-41.1-63.77-43.72-20.63-1.86-39.3 4.48-55.14 18s-25.6 30.79-26.39 51.79c-.89 23.74-.54 47.53-.56 71.31-.05 54.57.06 109.15-.14 163.73a24.83 24.83 0 0 1-3.19 11.92 18.86 18.86 0 0 1-21.12 8.4c-8.91-2.77-14.28-10-14.29-19.39v-94a59.53 59.53 0 0 0-4-22c-11.58-29.62-43.36-43.57-73.07-33.16-23 8.05-37.7 30-37.71 54.37 0 18.67.12 37.33-.08 56 0 1.45 0 2.87.1 4.25v20.59c0 28.25-.14 56.5.07 84.75a77.14 77.14 0 0 0 7.47 32.19c9 19.15 22.71 33.59 42.19 42.61A86.28 86.28 0 0 0 85.71 460c18.79.18 37.58 0 56.37.05 7.89 0 11.6 3.74 11.6 11.75v79.38c0 5.12 0 5.14-5.09 5.14H70.75a33.52 33.52 0 0 0-6.1.41c-5.44 1-8.53 7.51-6.12 12.53 2.06 4.29 5.5 5.85 10.17 5.85q161.45-.08 322.88 0h2.3a9.43 9.43 0 0 0 7.27-14.18c-2.35-4-6.06-4.58-10.16-4.58-26.46 0-52.92 0-79.37.09-3.73 0-5.16-.86-5.15-4.88.13-45.76.07-91.52.09-137.28 0-8 3.73-11.71 11.65-11.71 13.29 0 26.58.07 39.88 0l23.68-.17c10.1-1.51 20.09-3.55 29.27-8.28 31.57-16.26 48.46-42.26 48.87-77.67.55-53.97.12-107.78.03-161.6zm-18.72 159c0 28.08-12.4 49-37 62.48-9.43 5.15-19.8 7.29-30.56 7.31h-56c-12 0-21.33 4.83-26.65 15.69a32.24 32.24 0 0 0-3.13 13.59q-.33 69.21 0 138.43c0 3.82-.89 5-4.84 5q-52.92-.23-105.84 0c-4 0-4.84-1.25-4.81-5 .16-26.71-.17-53.43.18-80.14.2-15.55-11.64-30.26-29.7-30s-36 .07-54.07 0c-28.09 0-49-12.38-62.51-37a61.44 61.44 0 0 1-7.41-29.78q-.08-81.68 0-163.36c.06-25.41 24-44 48-37.64a38.8 38.8 0 0 1 29.19 37.87q.1 46.77 0 93.56c0 10.36 2.83 19.5 9.72 27.39 17.47 20 51.13 15.38 62.54-8.59a41.43 41.43 0 0 0 4.09-18.1q-.07-113.51-.06-227c0-23 9.77-40.5 29.42-52.13 12.27-7.25 25.68-9.16 39.83-6.29 18.32 3.7 31.63 13.86 40.12 30.32a55.92 55.92 0 0 1 6 26.19c-.1 32.85 0 65.7 0 98.55v73.63c0 22.84 19.35 40.84 42 38.42 18.8-2 34.23-17 34.26-38.33V198.3c0-15.18-.23-30.36 0-45.53a38.73 38.73 0 0 1 47.24-37.1s16.29 5.49 21.62 13.85l.38.51c5.63 7.55 8 16.08 8 25.5q-.08 79.17-.01 158.36z"/></svg>