<svg data-name="Layer 1" xmlns="http://www.w3.org/2000/svg" viewBox="0 0 800 800"><path d="M748.69 486.52l9.22 1-22.4-283.13-26.25 10v23.69l-153.81 48.4-9.82-13.76-17.1 3.94 1 19.08-91.73 30.58-15.1-12.08-13.13 6.57v13.63l-56.92 19.88-.93-32.52-89.18-46.12-34.84 18.91-6.94-3-12.87 6.93-10.9-5-23.6 12.48v12l-10.28 6.32-28.4-12.32-17.18-7.52-1.24.7c-14.33 8.06-32.86-1-33.05-1.06l-1.66-.82-13.22 10.84-9.08 72.61-22.94 199.81 93 2.27 1.16-68.41h-10.63V495l70.34-8.15 40.7 5.95v13.3l69.55-3.21 1.07 23H309l-6.92 70.21 233.77 19.06 66 22v-19.78l9.29.62 1 21.71 114.76 13.21 25.84-1.13-3-158.58zM413.06 466l-70.22 7.26v-19.04l69.67-11.89zm19.25-2l-.55-25.11 102.52-13.59 1.09 28zm124.6-12.89l-.55-30.34L722.31 397l1.58 36.85zm156.8-208.41l7.75 128.08-2.4.43-161.88 29.06-2.77-107.48zm-181.16 58.06l1.61 104.69-99.54 16.11 2.53-89zM236.63 500.12v-12.21l-46.34-6.78-76.13 8.87v36.19h10.56l-1 56.84-81-2L65 387.43l8.79-70.32L82.4 310c5.24 2.22 21.31 7.89 35.41.83l45.76 19.89 15.53-9.56v-11.74l18.07-9.42 10.93 5 12.9-7 7 3 31.54-17.12-8.35 215.64zm62.66-22.32l.9 19.38-43.28 1.88 8.35-215.55 80.85 41.82 1.05 36.95 65.26-22.79v87.28l-67.48 12.9-1-83.36-13.89-3-2 121.07h3.52L302 477.52zm427.82 169.39l-109.5-12.59-1-22-20.48-1.36v17.94l-58.76-19.58-.32-.11-228.67-18.61 7-70.7H307l-1.73-37.26 426.51-44.12 11.13 44.53-.31 1.18 1.4 9 2.92 152.82z"/></svg>