<svg xmlns="http://www.w3.org/2000/svg" viewBox="0 0 17.056 17.056"><g fill="#030104"><path d="M11.298 8.02c1.295-.587 1.488-5.055.724-6.371-.998-1.718-5.742-1.373-7.24-.145-.172.61-.154 1.717-.146 2.597h4.702v.412H4.637c0 .006-2.093.013-2.093.013-3.609 0-3.534 7.838 1.228 7.838 0 0 .175-1.736.481-2.606.945-2.685 4.915-.772 7.045-1.738zM6.375 3.465a.98.98 0 1 1 0-1.962.98.98 0 0 1 0 1.962z"/><path d="M13.12 4.691s-.125 1.737-.431 2.606c-.945 2.684-4.914.772-7.045 1.738-1.294.587-1.489 5.055-.724 6.371.997 1.719 5.741 1.374 7.24.145.172-.609.154-1.716.146-2.596H7.603v-.412h4.701c0-.006 2.317-.013 2.317-.013 3.326 0 3.624-7.839-1.501-7.839zm-2.722 8.729a.982.982 0 1 1 0 1.964.982.982 0 0 1 0-1.964z"/></g></svg>