<svg id="Layer_1" data-name="Layer 1" xmlns="http://www.w3.org/2000/svg" viewBox="0 0 800 800"><title>009-CCRP</title><path d="M748.69,486.52l9.22,1-22.4-283.13-26.25,10v23.69L555.45,286.48l-9.82-13.76-17.1,3.94,1,19.08-91.73,30.58L422.7,314.24l-13.13,6.57v13.63l-56.92,19.88-.93-32.52-89.18-46.12L227.7,294.59l-6.94-3-12.87,6.93-10.9-5L173.39,306v12l-10.28,6.32L134.71,312l-17.18-7.52-1.24.7c-14.33,8.06-32.86-1-33.05-1.06l-1.66-.82L68.36,314.14l-9.08,72.61L36.34,586.56l93,2.27,1.16-68.41H119.87V495l70.34-8.15,40.7,5.95V506.1l69.55-3.21,1.07,23H309l-6.92,70.21,233.77,19.06,66,22V617.38l9.29.62,1,21.71L726.9,652.92l25.84-1.13-3-158.58ZM413.06,466l-70.22,7.26V454.22l69.67-11.89Zm19.25-2-.55-25.11,102.52-13.59,1.09,28Zm124.6-12.89-.55-30.34L722.31,397l1.58,36.85ZM713.71,242.7l7.75,128.08-2.4.43L557.18,400.27l-2.77-107.48ZM532.55,300.76l1.61,104.69-99.54,16.11,2.53-89ZM236.63,500.12V487.91l-46.34-6.78L114.16,490v36.19h10.56l-1,56.84-81-2L65,387.43l8.79-70.32L82.4,310c5.24,2.22,21.31,7.89,35.41.83l45.76,19.89,15.53-9.56V309.42L197.17,300l10.93,5L221,298l7,3,31.54-17.12-8.35,215.64Zm62.66-22.32.9,19.38-43.28,1.88,8.35-215.55,80.85,41.82,1.05,36.95,65.26-22.79v87.28l-67.48,12.9-1-83.36-13.89-3-2,121.07,3.52,0L302,477.52ZM727.11,647.19,617.61,634.6l-1-22-20.48-1.36v17.94l-58.76-19.58-.32-.11L308.38,590.88l7-70.7H307l-1.73-37.26L731.78,438.8l11.13,44.53-.31,1.18,1.4,9,2.92,152.82Z"/></svg>