<?xml version="1.0" encoding="UTF-8"?>
<!DOCTYPE svg PUBLIC "-//W3C//DTD SVG 1.1//EN" "http://www.w3.org/Graphics/SVG/1.1/DTD/svg11.dtd">
<!-- Creator: CorelDRAW X6 -->
<svg xmlns="http://www.w3.org/2000/svg" xml:space="preserve" width="8.33333in" height="7.69444in" version="1.1" style="shape-rendering:geometricPrecision; text-rendering:geometricPrecision; image-rendering:optimizeQuality; fill-rule:evenodd; clip-rule:evenodd"
viewBox="0 0 8333 7694"
 xmlns:xlink="http://www.w3.org/1999/xlink">
 <defs>
  <style type="text/css">
   <![CDATA[
    .fil0 {fill:#373435;fill-rule:nonzero}
   ]]>
  </style>
 </defs>
 <g id="Layer_x0020_1">
  <metadata id="CorelCorpID_0Corel-Layer"/>
  <path class="fil0" d="M5101 6260c100,0 202,8 301,-2 79,-8 135,-64 152,-144 32,-154 64,-308 87,-463 28,-195 -61,-356 -237,-444 -56,-28 -112,-56 -172,-74 -57,-18 -82,-51 -74,-107 28,-182 55,-365 89,-546 15,-79 47,-155 70,-232 12,-41 31,-78 81,-63 49,15 47,56 34,97 -6,17 -9,35 -18,66 58,-24 109,-41 156,-66 456,-246 834,-577 1042,-1059 265,-614 207,-1215 -171,-1767 -239,-349 -724,-475 -1089,-319 -176,75 -301,232 -322,411 15,-11 27,-19 38,-28 241,-211 577,-210 814,7 262,238 349,544 320,886 -22,261 -120,494 -303,684 -246,256 -611,297 -912,102 -189,-122 -381,-237 -594,-313 -299,-106 -598,-127 -905,-31 -118,37 -242,61 -365,76 -326,41 -575,-153 -622,-479 -45,-311 80,-560 290,-774 19,-19 57,-22 88,-28 97,-18 199,-21 291,-54 191,-67 314,-282 289,-482 -8,-64 -50,-101 -113,-101 -257,-2 -514,-11 -771,4 -236,13 -420,139 -499,362 -178,504 -242,1021 -105,1548 79,305 235,566 461,785 7,6 13,13 20,19 32,31 74,63 31,110 -42,45 -81,13 -111,-21 -90,-103 -178,-206 -267,-310 -10,-12 -19,-26 -36,-49 -125,64 -253,122 -374,193 -70,41 -102,116 -95,197 6,80 20,161 38,239 5,22 37,39 56,58 19,-20 50,-38 54,-61 28,-147 112,-250 234,-330 34,-22 70,-36 98,3 31,43 6,74 -31,97 -101,64 -164,151 -186,271 -15,81 -77,132 -153,138 -76,6 -157,-29 -174,-99 -28,-120 -53,-245 -52,-368 2,-131 85,-226 203,-285 105,-53 211,-103 317,-155 -39,-96 -82,-188 -115,-283 -147,-431 -137,-869 -47,-1308 24,-118 56,-234 89,-349 92,-319 360,-524 693,-528 231,-3 463,-2 694,0 178,1 278,116 258,293 -40,359 -247,561 -607,578 -90,4 -145,39 -193,107 -144,200 -211,415 -135,659 59,187 213,304 408,288 130,-10 263,-32 387,-72 376,-121 742,-88 1096,69 172,76 337,174 498,273 211,130 424,156 643,35 168,-92 271,-245 336,-420 132,-355 115,-696 -126,-1003 -152,-194 -369,-261 -573,-187 -138,50 -229,150 -297,278 -15,28 -50,62 -76,62 -51,0 -50,-49 -51,-90 -5,-288 72,-538 334,-694 233,-139 485,-140 739,-75 364,94 603,336 747,670 336,779 211,1608 -427,2242 -250,249 -531,452 -866,575 -27,10 -57,43 -62,71 -27,136 -47,273 -70,409 -8,45 11,65 52,81 117,45 228,101 310,202 106,130 144,278 117,442 -23,144 -52,287 -81,429 -33,162 -149,262 -316,270 -83,4 -167,2 -250,1 -64,-1 -113,-30 -134,-92 -21,-63 4,-114 55,-152 61,-46 124,-89 184,-136 19,-15 40,-41 42,-64 5,-62 5,-125 0,-187 -15,-176 -160,-322 -347,-355 -100,-18 -202,-29 -299,-57 -236,-67 -359,-259 -341,-505 17,-239 43,-475 146,-695 16,-36 33,-74 59,-101 16,-17 51,-16 78,-22 7,28 29,65 18,83 -135,229 -164,484 -180,741 -14,213 75,337 282,391 78,20 159,32 239,42 203,25 415,195 451,389 21,114 14,235 12,352 0,22 -32,48 -54,65 -74,56 -151,108 -227,162 3,5 5,10 8,15z"/>
  <path class="fil0" d="M3420 4345c206,51 411,103 617,154 40,10 75,25 68,70 -8,49 -45,60 -90,48 -2,-1 -5,-1 -7,-2 -155,-38 -309,-76 -464,-115 -20,-5 -39,-11 -67,-19 0,145 3,284 -1,423 -4,169 74,282 219,363 108,60 215,134 226,272 11,138 9,277 5,416 -1,24 -33,52 -58,69 -83,58 -170,111 -254,168 -22,15 -41,35 -67,58 146,0 283,8 418,-5 40,-4 90,-60 109,-104 66,-150 122,-304 180,-458 27,-71 8,-137 -36,-195 -26,-35 -42,-71 0,-103 43,-32 73,-2 98,32 70,93 94,196 52,307 -59,158 -119,315 -184,471 -50,121 -148,181 -277,187 -111,5 -222,2 -333,1 -63,-1 -114,-25 -137,-87 -22,-62 -2,-115 50,-153 89,-66 178,-132 271,-192 35,-23 53,-43 51,-86 -4,-81 -4,-162 0,-243 4,-93 -33,-160 -110,-209 -49,-31 -96,-65 -144,-97 -116,-77 -182,-186 -189,-323 -8,-164 -8,-328 -9,-492 0,-70 -45,-121 -113,-102 -229,65 -461,67 -695,48 -4,0 -8,3 -17,7 -6,57 -12,116 -17,176 -10,102 -68,168 -159,183 -80,13 -165,-34 -193,-125 -34,-112 -65,-227 -76,-343 -15,-164 102,-294 266,-317 140,-20 280,-35 419,-56 76,-11 85,-38 46,-104 -26,-43 -82,-92 -13,-135 65,-40 86,30 112,69 90,136 41,258 -120,287 -125,23 -252,35 -378,49 -167,19 -227,85 -209,251 9,82 33,163 59,241 9,25 47,41 72,61 17,-24 44,-47 49,-74 13,-63 15,-129 22,-193 12,-107 23,-104 133,-103 193,2 388,-3 580,-22 81,-8 163,-51 235,-94 104,-61 133,-153 98,-269 -38,-127 -117,-230 -205,-326 -19,-20 -39,-40 -58,-59 -29,-29 -47,-62 -14,-97 36,-37 72,-19 102,14 58,66 122,128 171,200 48,72 90,151 118,233 53,158 9,284 -120,388 -10,8 -20,17 -30,26 0,9 -1,18 -1,27z"/>
  <path class="fil0" d="M2690 1181c49,4 117,-16 117,61 0,76 -67,62 -116,61 -50,-1 -122,18 -120,-64 2,-75 72,-53 118,-59z"/>
 </g>
</svg>
