<svg id="Layer_1" data-name="Layer 1" xmlns="http://www.w3.org/2000/svg" viewBox="0 0 800 800"><defs><style>.cls-1{fill:#fff;}</style></defs><title>008-hayline-icon</title><path class="cls-1" d="M297.27,580.51c1.41-1,1.91-3.18,4.23-2.28-.91,1-1.78,2-2.72,3.14l2.87,3.82c-2.45.84-2.75-1.57-4.25-2.63l-.2,2.72h-1.54v-9.8h1.61Z"/><path class="cls-1" d="M293.64,583l1.23.54a2.84,2.84,0,0,1-3.42,2,2.48,2.48,0,0,1-2.27-2.63q0-1.08,0-2.16a2.44,2.44,0,0,1,2.26-2.74,2.85,2.85,0,0,1,3.47,1.95l-1.29.5c-.29-.24-.53-.6-.84-.66a2.5,2.5,0,0,0-1.46,0c-.62.27-.74,3.1-.22,3.7S292.61,584,293.64,583Z"/><path class="cls-1" d="M284.91,585.25c-.26-1-.2-1.74,1.09-1.6.68.08.92-.29.89-.93,0-.35,0-.7,0-1,1.59-.37,1.72-.28,1.7,1.15C288.55,585,287.6,585.61,284.91,585.25Z"/><path class="cls-1" d="M534.26,579.06c-.29-.69-.47-1.15-.72-1.75-.08.58-.14,1-.19,1.41l-.23,0V576l.33-.1.84,2,.83-2,.31.07v2.68l-.2.05-.19-1.41Z"/><path d="M553.81,576.18c.21.39.61.8.56,1.15a4,4,0,0,1-.73,1.31c-.25-.39-.66-.77-.71-1.19s.27-.84.43-1.26Z"/><path class="cls-1" d="M537.13,576l.85,2.7c-.74-.68-1.33-1.11-2.11,0l.84-2.72Z"/><path class="cls-1" d="M544.53,576c1.46-.18,1.82.08,1.86,1.26s-.26,1.55-1.86,1.48Zm1.67,1.31-.85-1a3.41,3.41,0,0,0-.49,1.07c0,.32.3.66.47,1Z"/><path class="cls-1" d="M540.79,576h1.36l-1,.81.77.51-.77.73,1,.71h-1.35Z"/><path class="cls-1" d="M540.08,576.55c-1.26-.33-1.57-.07-1.35,1.23a1.14,1.14,0,0,0,.5.67c.08.06.53-.18.54-.3a2.4,2.4,0,0,0-.29-.86c.27.09.69.14.7.24,0,.33,0,.81-.16,1a1.2,1.2,0,0,1-1.06.25,1.48,1.48,0,0,1-.68-1.07,2.9,2.9,0,0,1,.59-1.64c.15-.19.85.07,1.3.13Z"/><path class="cls-1" d="M304.16,578.73c-.6.36-1,.76-1.25.7s-.54-.54-.8-.84c.31-.26.59-.69.91-.71S303.62,578.3,304.16,578.73Z"/><path d="M557.32,583.66l-.92.75a3.71,3.71,0,0,1-.61-.89c0-.1.41-.53.58-.51S556.9,583.36,557.32,583.66Z"/><path class="cls-1" d="M564.16,577.11l.81.13,0,.26-.83,0Z"/><path d="M546.2,577.35l-.87,1.09c-.17-.32-.48-.66-.47-1a3.41,3.41,0,0,1,.49-1.07Z"/><path d="M313.35,297.49c17.77,8.13,30.42,21.78,36.25,40.7,2.27,7.36,3,15.23,4,22.93.69,5.23,3.49,8.5,8.14,10.05a9.4,9.4,0,0,0,11.09-3.44c2.09-3.07,2.69-7.14,3.94-10.78-1.27-12.85-3.77-23.88-10.41-37.34-13.46-27.23-35.64-43.79-65.12-49.52-24-4.66-47-.33-67.46,13.55-26.7,18.12-40.37,43.69-41.3,76a11.39,11.39,0,0,0,10.74,11.94c6.31.25,10.94-4.17,11.66-10.94a152.83,152.83,0,0,1,2-15.43c4.27-20.08,15.69-35.17,33.41-45.15C270.77,288.52,292.19,287.82,313.35,297.49Z"/><path d="M304.86,413.05c14.68-6.75,25.87-25,25.22-41.1-.19-4.68-2.57-8-6.75-10-3.82-1.9-7.25-1.18-10.81.92-4.78,2.81-4.57,7.5-5.18,12-1.42,10.51-8.92,18.3-19.47,20.32-8.5,1.63-19-3.25-23.49-11a22.86,22.86,0,0,1,2.49-27.26,22,22,0,0,1,16.41-7.8c7.81-.37,12.47-5.36,12.13-12-.36-7-5.22-10.84-13.33-10.57-25.16.84-45.28,23.24-44.22,48.49,1.79,5.77,2.78,12,5.51,17.23C255.53,415.8,280.77,424.13,304.86,413.05Z"/><path d="M350.35,225.59c-.72-.32-1.43-.65-2.15-1-.42-.17-.83-.38-1.25-.55-1.1-.46-2.21-.85-3.31-1.28s-1.91-.75-2.88-1.11c-1.94-.71-3.88-1.38-5.84-2l-1-.32a160.1,160.1,0,0,0-22.69-5.56l-.26,0-.5-.08c-2-.32-4-.62-6-.87a157.88,157.88,0,0,0-65.32,5,154.87,154.87,0,0,0-59.67,32.48l-.23.75a184.32,184.32,0,0,0-19.69,20.31c-16.5,19.82-26.67,42.92-32.25,68.13-2.17,9.83,6.21,17.61,14.9,14.17,4.45-1.77,6.67-5.35,7.44-9.74a123,123,0,0,1,14.28-39,137.2,137.2,0,0,1,47.77-49.93,141.31,141.31,0,0,1,27.64-13.32,153.24,153.24,0,0,1,21.42-5.48c2.88-.52,5.73-.91,8.58-1.26,2.15-.21,4.31-.43,6.5-.54,22.26-1.11,43.88,2.38,64.48,11.54.89.39,1.74.82,2.61,1.23a149,149,0,0,1,14.46,8c32.4,20.36,53.11,49.48,61.62,87.09,5,22,4.19,43.88-1.22,65.5-5.61,22.42-16.87,42-32.67,58.91a137.23,137.23,0,0,1-40.75,30.07l-2.14,1c-1.52.7-3.06,1.35-4.61,2-1.09.46-2.17.92-3.27,1.36-2.47,1-5,1.88-7.5,2.71a122.64,122.64,0,0,1-41.07,6.42c-4.46-.09-8.4,1.39-11,5.41-5.07,7.86.94,17.58,11,17.36,25.82-.57,50.46-6.06,73.1-18.39a182.59,182.59,0,0,0,24.26-15.77l.77-.07a155,155,0,0,0,43.45-52.22,157.62,157.62,0,0,0,17.92-69.66c1-43.6-13.35-81.52-42.65-113.73A153.37,153.37,0,0,0,350.35,225.59Z"/><path d="M570.88,489.2c.86,12.64,11.09,25.93,23.1,30a8.75,8.75,0,0,0,9.24-2.15c2.46-2.27,2.89-5,2.35-8.19-.73-4.29-4.23-5.44-7.36-7.14a18.46,18.46,0,0,1-9.47-19.95c1.18-6.69,7.68-13,14.6-14.17a17.94,17.94,0,0,1,19.3,9.44,17.3,17.3,0,0,1,1.14,14.21c-1.91,5.83.44,10.64,5.44,12.25,5.22,1.69,9.4-.8,11.47-6.83,6.4-18.67-4.41-39.69-23.22-45.95-4.73-.3-9.54-1.3-14.18-.77C582.63,452.25,569.48,468.43,570.88,489.2Z"/><path d="M723.73,507.49c7.22-34.92.66-67.66-18.39-97.73a124.14,124.14,0,0,0-61.12-50.15c-38.92-15.18-77.05-12.07-114.11,7.66-.61-6.83-1.18-13-1.73-19.22a230.29,230.29,0,0,0-17.58-69.87A241.45,241.45,0,0,0,386.18,151.77a232.09,232.09,0,0,0-74.32-19.07,249.38,249.38,0,0,0-74.68,4.54,234.68,234.68,0,0,0-61.35,22.67A241,241,0,0,0,58,306.59,234.86,234.86,0,0,0,49.28,366a243.06,243.06,0,0,0,6.24,61.53,237.71,237.71,0,0,0,22.54,58.69c21.18,38.8,50.84,69.37,88.61,92.15l9,5.5,5.29,2.2H100.32a14.19,14.19,0,0,0,0,28.38H696a14.19,14.19,0,1,0,0-28.38H673.85C700,566.12,717,540,723.73,507.49ZM213.55,577c-.92-.34-2.41-.82-2.89-.39l-23.33-11.11c-39.06-21.32-69.64-51.09-90.81-90.46a212.74,212.74,0,0,1-19.94-51.78,219.29,219.29,0,0,1-3.74-82.8A218.85,218.85,0,0,1,183.93,180a212.23,212.23,0,0,1,48.68-19.68,222.27,222.27,0,0,1,70.93-6.88,218.72,218.72,0,0,1,204,236.68,214.21,214.21,0,0,1-35.74,102.49c-21.15,31.59-48.49,56.36-82.5,73.74a217.91,217.91,0,0,1-56.18,19.69h-88A212.94,212.94,0,0,1,213.55,577Zm186.06,9.05a261,261,0,0,0,73.11-58.87,133.8,133.8,0,0,0,44.56,58.87Zm251.16-10.47a110.9,110.9,0,0,1-23.7,10.47H564.53c-28.21-7.92-49.82-25.81-65.23-52.77-4.4-7.71-6.79-16.58-9.95-25a5,5,0,0,1,.41-3.66c5.6-10.25,11.32-20.44,17-30.62.25-.43.91-.62,1.61-1.06,0,3.3-.19,6.07,0,8.8.5,6.07,5.39,10.53,10.92,10.18a11,11,0,0,0,10.28-11,61.06,61.06,0,0,1,8.07-31.3c10.75-18.86,26.63-30.67,48.41-33.49,28.31-3.66,50.11,7.2,65.52,30.88A59.86,59.86,0,0,1,661.23,481c-.05,5.23,3,8.85,8.19,10.48a10.25,10.25,0,0,0,11.3-4.42,14,14,0,0,0,1.77-7c-.3-23.58-8.61-44-25.39-60.57-21.06-20.75-46.55-28.72-75.79-24.26C557.59,398.85,539,411,524.69,430c-.57.75-1.25,1.42-2.73,3.09,1.13-5.56,2.11-9.84,2.86-14.17,1.2-7,2.1-14.09,3.47-21.08a9,9,0,0,1,3-5.24c24.31-17.74,51.61-24.6,81.15-19.61,40.38,6.82,69.06,29.76,84.65,67.48C717.81,490.56,697.68,548.12,650.77,575.61Z"/></svg>