<svg id="Layer_1" data-name="Layer 1" xmlns="http://www.w3.org/2000/svg" viewBox="0 0 560.85 143.96"><defs><style>.cls-1{fill:#3f3837;}.cls-2{fill:#e5b432;}</style></defs><title>logo-evolux</title><path class="cls-1" d="M93,131.46q0,12.49-12.66,12.5H38Q0,144,0,105.11V46.86Q0,34.2,12.66,34.19h67Q93,34.11,93,46.77,92.87,59.1,80,59.35l-54.71-.08V76.16L63.24,76q12.83.17,12.83,13.09.08,12.33-12.58,12.33l-38.16.08v4.22q0,12.92,12.92,12.92l42.38.08Q93,118.71,93,131.46Z"/><path class="cls-1" d="M191.91,46.77l-34.19,88.65q-3,7.68-8,8.15a35.4,35.4,0,0,1-9.2-.25q-4.27-.72-7.81-7.89L98.87,46.6q0-12.66,12.66-12.66,8,0,10.34,4.44T145.47,106q21.1-63.23,23.72-67.54t10.3-4.56Q191.91,33.94,191.91,46.77Z"/><path class="cls-1" d="M237.19,34.21H254q38.16,0,38.16,38.08v32.84q0,38.84-38,38.84H236.85q-37.74,0-37.74-38V72.37Q199.11,34.21,237.19,34.21Zm-.25,25.5q-12.5,0-12.5,12.58v33.35q0,13,12.5,13H254q12.83,0,12.83-13V71.95q0-12.24-12.83-12.24Z"/><path class="cls-1" d="M319.72,0q12.83,0,12.83,12.92V118.28q12.92,0,12.66,12.33,0,12.75-12.66,13l-12.66.17q-12.66-.17-12.66-12.75V12.92Q307.23,0,319.72,0Z"/><path class="cls-1" d="M454.27,46.77v84.51q0,12.5-12.67,12.5l-42.38-.08q-38,0-38-38.84V46.6q0-12.66,12.67-12.66t12.66,12.84v58.59q0,13,12.91,13h29.47V46.77q0-12.84,12.91-12.84Q454.27,33.94,454.27,46.77Z"/><path class="cls-2" d="M556.75,55.72,491.48,138.8q-8.28,9.46-17.9,1.18-9.29-8.7-.84-18.32l65-82.66q8.61-9.71,18.15-1.26Q565.27,46,556.75,55.72Zm-83.16-18q9.63-8.44,18.24,1.26l65,82.66q8.45,9.63-.84,18.32-9.63,8.27-18-1.18L472.83,55.72Q464.3,46,473.59,37.74Z"/></svg>