<?xml version="1.0" encoding="UTF-8" standalone="no"?>
<svg
   xmlns:dc="http://purl.org/dc/elements/1.1/"
   xmlns:cc="http://creativecommons.org/ns#"
   xmlns:rdf="http://www.w3.org/1999/02/22-rdf-syntax-ns#"
   xmlns:svg="http://www.w3.org/2000/svg"
   xmlns="http://www.w3.org/2000/svg"
   viewBox="0 0 1587.4 1122.52"
   height="1122.52"
   width="1587.4"
   xml:space="preserve"
   id="svg2"
   version="1.1"><metadata
     id="metadata8"><rdf:RDF><cc:Work
         rdf:about=""><dc:format>image/svg+xml</dc:format><dc:type
           rdf:resource="http://purl.org/dc/dcmitype/StillImage" /><dc:title></dc:title></cc:Work></rdf:RDF></metadata><defs
     id="defs6"><clipPath
       id="clipPath18"
       clipPathUnits="userSpaceOnUse"><path
         id="path16"
         d="M 0,841.89 H 1190.551 V 0 H 0 Z" /></clipPath></defs><g
     transform="matrix(1.3333333,0,0,-1.3333333,0,1122.52)"
     id="g10"><g
       id="g12"><g
         clip-path="url(#clipPath18)"
         id="g14"><g
           transform="translate(330.3569,744.9331)"
           id="g20"><path
             id="path22"
             style="fill:#0181ff;fill-opacity:1;fill-rule:nonzero;stroke:none"
             d="m 0,0 c 13.636,3.877 29.679,-1.737 36.765,-14.038 6.417,-9.358 6.818,-21.123 6.952,-32.085 -0.267,-93.585 -0.134,-187.169 0,-280.752 -0.134,-9.495 -0.669,-19.12 -4.278,-27.943 -7.888,-18.584 -34.626,-26.338 -50.67,-13.368 -12.566,8.02 -15.374,24.866 -14.839,38.638 0.401,97.994 -0.134,196.124 0.267,294.12 C -26.471,-19.786 -16.043,-2.807 0,0" /></g><g
           transform="translate(330.3569,744.9331)"
           id="g24"><path
             id="path26"
             style="fill:none;stroke:#0181ff;stroke-width:0.094;stroke-linecap:butt;stroke-linejoin:miter;stroke-miterlimit:10;stroke-dasharray:none;stroke-opacity:1"
             d="m 0,0 c 13.636,3.877 29.679,-1.737 36.765,-14.038 6.417,-9.358 6.818,-21.123 6.952,-32.085 -0.267,-93.585 -0.134,-187.169 0,-280.752 -0.134,-9.495 -0.669,-19.12 -4.278,-27.943 -7.888,-18.584 -34.626,-26.338 -50.67,-13.368 -12.566,8.02 -15.374,24.866 -14.839,38.638 0.401,97.994 -0.134,196.124 0.267,294.12 C -26.471,-19.786 -16.043,-2.807 0,0 Z" /></g><g
           transform="translate(161.9048,572.3369)"
           id="g28"><path
             id="path30"
             style="fill:#0181ff;fill-opacity:1;fill-rule:nonzero;stroke:none"
             d="m 0,0 c -13.236,-0.535 -25.937,-7.353 -33.958,-17.915 -11.765,-15.508 -17.112,-35.026 -16.979,-54.279 1.204,-17.513 4.546,-35.963 15.776,-49.867 13.235,-19.251 41.311,-23.93 61.498,-13.637 13.904,6.953 22.594,21.391 27.14,35.83 6.551,18.316 5.214,38.503 0.133,57.087 C 48.931,-29.947 43.316,-16.444 31.418,-8.69 22.728,-1.604 10.962,0.535 0,0 m -73.665,39.172 c 29.547,26.471 76.74,34.091 111.366,13.236 7.487,-5.482 14.305,-12.033 20.054,-19.252 3.342,7.487 6.417,15.374 12.433,21.257 13.637,9.893 35.027,10.161 46.792,-2.942 9.76,-9.759 11.097,-24.197 10.963,-37.3 -0.134,-62.3 -0.134,-124.734 0,-187.167 0.402,-24.869 -3.609,-50.536 -15.775,-72.596 -9.626,-16.578 -23.262,-30.882 -39.974,-40.373 -31.284,-18.185 -69.386,-20.59 -104.681,-16.446 -22.059,4.277 -44.787,9.225 -64.306,21.124 -9.894,6.149 -18.984,16.044 -19.386,28.343 0.135,11.765 8.156,22.058 17.782,28.208 12.834,6.684 26.471,-0.4 38.904,-4.68 22.193,-9.226 46.525,-16.712 70.857,-12.967 18.449,2.404 36.096,14.305 42.648,32.086 4.946,12.299 4.01,25.802 4.411,38.772 -8.823,-10.162 -18.583,-19.921 -31.016,-25.403 -36.097,-15.108 -81.953,-9.092 -109.895,19.519 -18.717,17.646 -29.279,42.514 -34.225,67.381 -4.946,24.866 -6.15,50.936 0.401,75.536 6.284,28.075 20.455,54.947 42.647,73.664" /></g><g
           transform="translate(161.9048,572.3369)"
           id="g32"><path
             id="path34"
             style="fill:none;stroke:#0181ff;stroke-width:0.094;stroke-linecap:butt;stroke-linejoin:miter;stroke-miterlimit:10;stroke-dasharray:none;stroke-opacity:1"
             d="m 0,0 c -13.236,-0.535 -25.937,-7.353 -33.958,-17.915 -11.765,-15.508 -17.112,-35.026 -16.979,-54.279 1.204,-17.513 4.546,-35.963 15.776,-49.867 13.235,-19.251 41.311,-23.93 61.498,-13.637 13.904,6.953 22.594,21.391 27.14,35.83 6.551,18.316 5.214,38.503 0.133,57.087 C 48.931,-29.947 43.316,-16.444 31.418,-8.69 22.728,-1.604 10.962,0.535 0,0 Z m -73.665,39.172 c 29.547,26.471 76.74,34.091 111.366,13.236 7.487,-5.482 14.305,-12.033 20.054,-19.252 3.342,7.487 6.417,15.374 12.433,21.257 13.637,9.893 35.027,10.161 46.792,-2.942 9.76,-9.759 11.097,-24.197 10.963,-37.3 -0.134,-62.3 -0.134,-124.734 0,-187.167 0.402,-24.869 -3.609,-50.536 -15.775,-72.596 -9.626,-16.578 -23.262,-30.882 -39.974,-40.373 -31.284,-18.185 -69.386,-20.59 -104.681,-16.446 -22.059,4.277 -44.787,9.225 -64.306,21.124 -9.894,6.149 -18.984,16.044 -19.386,28.343 0.135,11.765 8.156,22.058 17.782,28.208 12.834,6.684 26.471,-0.4 38.904,-4.68 22.193,-9.226 46.525,-16.712 70.857,-12.967 18.449,2.404 36.096,14.305 42.648,32.086 4.946,12.299 4.01,25.802 4.411,38.772 -8.823,-10.162 -18.583,-19.921 -31.016,-25.403 -36.097,-15.108 -81.953,-9.092 -109.895,19.519 -18.717,17.646 -29.279,42.514 -34.225,67.381 -4.946,24.866 -6.15,50.936 0.401,75.536 6.284,28.075 20.455,54.947 42.647,73.664 z" /></g><g
           transform="translate(506.8306,572.3369)"
           id="g36"><path
             id="path38"
             style="fill:#0181ff;fill-opacity:1;fill-rule:nonzero;stroke:none"
             d="m 0,0 c -12.568,-0.535 -25.535,-5.614 -33.557,-15.642 -21.257,-25.669 -23.664,-63.771 -10.295,-93.584 7.755,-18.182 25.936,-31.954 45.99,-31.684 20.59,-1.337 38.771,12.699 46.793,30.748 11.363,21.257 10.963,46.926 4.278,69.654 C 48.797,-28.342 42.514,-16.043 31.417,-8.69 22.728,-1.604 10.962,0.535 0,0 m 0,64.306 c 28.744,1.069 57.488,-9.359 79.279,-27.808 37.567,-31.017 54.145,-82.889 46.926,-130.483 -6.284,-37.3 -26.471,-74.331 -60.027,-93.451 -35.429,-21.39 -82.088,-23.529 -118.853,-4.277 -19.118,9.625 -35.696,24.464 -46.926,42.646 -16.979,25.401 -23.129,56.819 -22.327,86.9 2.808,43.717 25.936,86.9 64.039,109.628 C -40.643,58.424 -20.188,63.503 0,64.306" /></g><g
           transform="translate(506.8306,572.3369)"
           id="g40"><path
             id="path42"
             style="fill:none;stroke:#0181ff;stroke-width:0.094;stroke-linecap:butt;stroke-linejoin:miter;stroke-miterlimit:10;stroke-dasharray:none;stroke-opacity:1"
             d="m 0,0 c -12.568,-0.535 -25.535,-5.614 -33.557,-15.642 -21.257,-25.669 -23.664,-63.771 -10.295,-93.584 7.755,-18.182 25.936,-31.954 45.99,-31.684 20.59,-1.337 38.771,12.699 46.793,30.748 11.363,21.257 10.963,46.926 4.278,69.654 C 48.797,-28.342 42.514,-16.043 31.417,-8.69 22.728,-1.604 10.962,0.535 0,0 Z m 0,64.306 c 28.744,1.069 57.488,-9.359 79.279,-27.808 37.567,-31.017 54.145,-82.889 46.926,-130.483 -6.284,-37.3 -26.471,-74.331 -60.027,-93.451 -35.429,-21.39 -82.088,-23.529 -118.853,-4.277 -19.118,9.625 -35.696,24.464 -46.926,42.646 -16.979,25.401 -23.129,56.819 -22.327,86.9 2.808,43.717 25.936,86.9 64.039,109.628 C -40.643,58.424 -20.188,63.503 0,64.306 Z" /></g><g
           transform="translate(767.5293,572.6045)"
           id="g44"><path
             id="path46"
             style="fill:#0181ff;fill-opacity:1;fill-rule:nonzero;stroke:none"
             d="m 0,0 c -13.101,-0.534 -26.47,-5.615 -34.894,-15.909 -11.765,-14.974 -18.315,-33.958 -17.379,-53.076 0.535,-22.193 6.283,-46.258 23.93,-61.097 18.585,-16.579 50.403,-13.904 66.178,5.348 25.534,31.15 24.466,81.552 -2.807,111.365 C 25.803,-4.278 12.969,0.802 0,0 m -114.173,160.831 c 12.433,16.445 41.177,17.113 53.344,0 8.021,-8.956 8.021,-21.925 8.289,-33.289 0,-29.011 -0.401,-58.022 -0.135,-87.033 34.092,27.942 86.499,32.353 122.996,6.818 25.537,-16.043 40.911,-43.985 49.2,-72.328 5.347,-22.728 9.091,-46.658 4.946,-69.92 -3.743,-27.808 -16.176,-54.144 -34.626,-75.137 -17.112,-18.849 -40.909,-31.417 -66.177,-34.223 -28.343,-4.546 -59.359,6.953 -75.937,30.615 -3.609,-7.888 -6.819,-16.712 -13.636,-22.461 -16.044,-10.56 -41.713,-7.085 -50.938,10.831 -5.348,8.69 -5.214,19.519 -5.48,29.412 0.132,95.857 0.266,191.58 0,287.437 -0.269,10.294 1.87,20.99 8.154,29.278" /></g><g
           transform="translate(767.5293,572.6045)"
           id="g48"><path
             id="path50"
             style="fill:none;stroke:#0181ff;stroke-width:0.094;stroke-linecap:butt;stroke-linejoin:miter;stroke-miterlimit:10;stroke-dasharray:none;stroke-opacity:1"
             d="m 0,0 c -13.101,-0.534 -26.47,-5.615 -34.894,-15.909 -11.765,-14.974 -18.315,-33.958 -17.379,-53.076 0.535,-22.193 6.283,-46.258 23.93,-61.097 18.585,-16.579 50.403,-13.904 66.178,5.348 25.534,31.15 24.466,81.552 -2.807,111.365 C 25.803,-4.278 12.969,0.802 0,0 Z m -114.173,160.831 c 12.433,16.445 41.177,17.113 53.344,0 8.021,-8.956 8.021,-21.925 8.289,-33.289 0,-29.011 -0.401,-58.022 -0.135,-87.033 34.092,27.942 86.499,32.353 122.996,6.818 25.537,-16.043 40.911,-43.985 49.2,-72.328 5.347,-22.728 9.091,-46.658 4.946,-69.92 -3.743,-27.808 -16.176,-54.144 -34.626,-75.137 -17.112,-18.849 -40.909,-31.417 -66.177,-34.223 -28.343,-4.546 -59.359,6.953 -75.937,30.615 -3.609,-7.888 -6.819,-16.712 -13.636,-22.461 -16.044,-10.56 -41.713,-7.085 -50.938,10.831 -5.348,8.69 -5.214,19.519 -5.48,29.412 0.132,95.857 0.266,191.58 0,287.437 -0.269,10.294 1.87,20.99 8.154,29.278 z" /></g><g
           transform="translate(1024.2178,572.3369)"
           id="g52"><path
             id="path54"
             style="fill:#0181ff;fill-opacity:1;fill-rule:nonzero;stroke:none"
             d="m 0,0 c -12.566,-0.535 -25.535,-5.614 -33.557,-15.642 -21.256,-25.669 -23.663,-63.771 -10.293,-93.584 7.753,-18.182 25.935,-31.954 45.99,-31.684 20.588,-1.337 38.77,12.699 46.791,30.748 11.364,21.257 10.964,46.926 4.279,69.654 C 48.799,-28.342 42.515,-16.043 31.419,-8.69 22.728,-1.604 10.964,0.535 0,0 m 0,64.306 c 28.744,1.069 57.488,-9.359 79.279,-27.808 37.568,-31.017 54.146,-82.889 46.926,-130.483 -6.282,-37.3 -26.471,-74.331 -60.026,-93.451 -35.429,-21.39 -82.088,-23.529 -118.854,-4.277 -19.25,9.625 -35.696,24.464 -46.926,42.646 -16.978,25.401 -23.128,56.819 -22.326,86.9 2.807,43.717 25.938,86.9 64.039,109.628 17.245,10.963 37.7,16.042 57.888,16.845" /></g><g
           transform="translate(1024.2178,572.3369)"
           id="g56"><path
             id="path58"
             style="fill:none;stroke:#0181ff;stroke-width:0.094;stroke-linecap:butt;stroke-linejoin:miter;stroke-miterlimit:10;stroke-dasharray:none;stroke-opacity:1"
             d="m 0,0 c -12.566,-0.535 -25.535,-5.614 -33.557,-15.642 -21.256,-25.669 -23.663,-63.771 -10.293,-93.584 7.753,-18.182 25.935,-31.954 45.99,-31.684 20.588,-1.337 38.77,12.699 46.791,30.748 11.364,21.257 10.964,46.926 4.279,69.654 C 48.799,-28.342 42.515,-16.043 31.419,-8.69 22.728,-1.604 10.964,0.535 0,0 Z m 0,64.306 c 28.744,1.069 57.488,-9.359 79.279,-27.808 37.568,-31.017 54.146,-82.889 46.926,-130.483 -6.282,-37.3 -26.471,-74.331 -60.026,-93.451 -35.429,-21.39 -82.088,-23.529 -118.854,-4.277 -19.25,9.625 -35.696,24.464 -46.926,42.646 -16.978,25.401 -23.128,56.819 -22.326,86.9 2.807,43.717 25.938,86.9 64.039,109.628 17.245,10.963 37.7,16.042 57.888,16.845 z" /></g><g
           transform="translate(370.4648,339.8486)"
           id="g60"><path
             id="path62"
             style="fill:#0181ff;fill-opacity:1;fill-rule:nonzero;stroke:none"
             d="m 0,0 c 20.989,2.673 42.113,-1.873 61.498,-9.359 8.155,-3.745 15.909,-9.226 20.856,-16.712 7.353,-14.705 0,-36.631 -16.979,-40.643 -13.235,-2.273 -24.6,6.552 -37.033,9.226 -16.177,4.812 -34.76,1.337 -47.193,-10.43 -19.385,-19.92 -22.059,-51.338 -13.637,-76.873 7.086,-17.246 22.862,-33.688 42.781,-33.556 15.108,-1.739 28.478,6.416 42.515,10.697 15.775,5.613 33.423,-9.226 32.086,-25.536 0.936,-12.701 -9.358,-22.863 -19.92,-28.075 -27.942,-14.707 -62.568,-17.915 -92.248,-6.82 -35.428,12.97 -61.231,46.392 -68.183,83.024 -7.353,32.754 -1.069,68.184 17.38,96.258 C -61.098,-21.927 -31.819,-2.943 0,0" /></g><g
           transform="translate(370.4648,339.8486)"
           id="g64"><path
             id="path66"
             style="fill:none;stroke:#0181ff;stroke-width:0.094;stroke-linecap:butt;stroke-linejoin:miter;stroke-miterlimit:10;stroke-dasharray:none;stroke-opacity:1"
             d="m 0,0 c 20.989,2.673 42.113,-1.873 61.498,-9.359 8.155,-3.745 15.909,-9.226 20.856,-16.712 7.353,-14.705 0,-36.631 -16.979,-40.643 -13.235,-2.273 -24.6,6.552 -37.033,9.226 -16.177,4.812 -34.76,1.337 -47.193,-10.43 -19.385,-19.92 -22.059,-51.338 -13.637,-76.873 7.086,-17.246 22.862,-33.688 42.781,-33.556 15.108,-1.739 28.478,6.416 42.515,10.697 15.775,5.613 33.423,-9.226 32.086,-25.536 0.936,-12.701 -9.358,-22.863 -19.92,-28.075 -27.942,-14.707 -62.568,-17.915 -92.248,-6.82 -35.428,12.97 -61.231,46.392 -68.183,83.024 -7.353,32.754 -1.069,68.184 17.38,96.258 C -61.098,-21.927 -31.819,-2.943 0,0 Z" /></g><g
           transform="translate(769.8037,336.2363)"
           id="g68"><path
             id="path70"
             style="fill:#0181ff;fill-opacity:1;fill-rule:nonzero;stroke:none"
             d="m 0,0 c 22.727,7.756 49.465,4.813 69.117,-9.491 6.82,-4.68 12.7,-10.696 18.449,-16.712 14.841,14.973 33.826,26.337 54.815,29.679 24.733,3.342 51.338,-3.742 70.188,-20.586 16.044,-15.511 22.861,-38.24 22.46,-60.161 0.401,-37.836 0,-75.806 0.268,-113.64 0.133,-11.231 -2.006,-24.333 -11.766,-31.151 -12.166,-9.76 -32.352,-8.556 -41.978,4.278 -7.488,10.562 -7.353,23.93 -7.754,36.232 -0.669,33.423 0.401,66.846 -0.135,100.269 -1.068,12.565 -7.621,25.933 -19.518,31.282 -12.3,4.679 -27.808,4.948 -37.702,-4.812 -10.562,-8.022 -13.369,-22.06 -13.503,-34.491 -0.802,-35.564 0.669,-71.259 -0.402,-106.955 0.937,-16.178 -12.298,-32.754 -29.143,-32.085 -9.225,-1.606 -17.649,3.343 -23.664,9.758 -6.818,8.557 -7.62,19.921 -8.022,30.35 -1.202,35.694 0.268,71.389 -0.4,106.953 -0.802,10.293 -5.482,20.054 -12.969,27.138 -14.706,11.364 -38.637,9.76 -50.135,-5.481 -6.685,-9.357 -7.753,-21.124 -7.753,-32.353 -0.268,-33.421 0.267,-66.845 0,-100.268 0.134,-8.69 -1.338,-18.185 -7.086,-25.002 -10.027,-13.905 -33.022,-15.508 -44.787,-2.807 -8.958,9.624 -9.225,23.53 -9.626,35.83 -0.267,44.518 0.135,89.171 -0.134,133.692 0.535,11.497 -1.068,24.065 4.28,34.76 6.549,18.581 34.626,23.796 47.726,9.089 4.011,-3.742 5.483,-9.225 7.354,-14.169 C -22.596,-12.032 -12.301,-3.742 0,0" /></g><g
           transform="translate(769.8037,336.2363)"
           id="g72"><path
             id="path74"
             style="fill:none;stroke:#0181ff;stroke-width:0.094;stroke-linecap:butt;stroke-linejoin:miter;stroke-miterlimit:10;stroke-dasharray:none;stroke-opacity:1"
             d="m 0,0 c 22.727,7.756 49.465,4.813 69.117,-9.491 6.82,-4.68 12.7,-10.696 18.449,-16.712 14.841,14.973 33.826,26.337 54.815,29.679 24.733,3.342 51.338,-3.742 70.188,-20.586 16.044,-15.511 22.861,-38.24 22.46,-60.161 0.401,-37.836 0,-75.806 0.268,-113.64 0.133,-11.231 -2.006,-24.333 -11.766,-31.151 -12.166,-9.76 -32.352,-8.556 -41.978,4.278 -7.488,10.562 -7.353,23.93 -7.754,36.232 -0.669,33.423 0.401,66.846 -0.135,100.269 -1.068,12.565 -7.621,25.933 -19.518,31.282 -12.3,4.679 -27.808,4.948 -37.702,-4.812 -10.562,-8.022 -13.369,-22.06 -13.503,-34.491 -0.802,-35.564 0.669,-71.259 -0.402,-106.955 0.937,-16.178 -12.298,-32.754 -29.143,-32.085 -9.225,-1.606 -17.649,3.343 -23.664,9.758 -6.818,8.557 -7.62,19.921 -8.022,30.35 -1.202,35.694 0.268,71.389 -0.4,106.953 -0.802,10.293 -5.482,20.054 -12.969,27.138 -14.706,11.364 -38.637,9.76 -50.135,-5.481 -6.685,-9.357 -7.753,-21.124 -7.753,-32.353 -0.268,-33.421 0.267,-66.845 0,-100.268 0.134,-8.69 -1.338,-18.185 -7.086,-25.002 -10.027,-13.905 -33.022,-15.508 -44.787,-2.807 -8.958,9.624 -9.225,23.53 -9.626,35.83 -0.267,44.518 0.135,89.171 -0.134,133.692 0.535,11.497 -1.068,24.065 4.28,34.76 6.549,18.581 34.626,23.796 47.726,9.089 4.011,-3.742 5.483,-9.225 7.354,-14.169 C -22.596,-12.032 -12.301,-3.742 0,0 Z" /></g><g
           transform="translate(553.6226,283.6973)"
           id="g76"><path
             id="path78"
             style="fill:#0181ff;fill-opacity:1;fill-rule:nonzero;stroke:none"
             d="m 0,0 c -25.402,-3.343 -39.707,-30.749 -40.643,-54.146 -1.871,-24.333 5.883,-52.542 29.012,-64.574 19.117,-9.092 44.653,-2.407 55.482,16.177 15.507,24.732 14.974,58.425 -0.268,83.158 C 34.893,-4.546 16.845,3.343 0,0 m -4.01,56.151 c 31.684,4.144 64.439,-8.557 86.096,-31.687 45.322,-45.186 45.456,-126.874 0.536,-172.462 -35.028,-35.828 -96.125,-40.91 -136.767,-11.899 -36.633,26.069 -53.344,74.066 -46.659,117.785 6.016,35.827 27.139,70.187 60.028,87.032 11.23,6.282 24.065,9.624 36.766,11.231" /></g><g
           transform="translate(553.6226,283.6973)"
           id="g80"><path
             id="path82"
             style="fill:none;stroke:#0181ff;stroke-width:0.094;stroke-linecap:butt;stroke-linejoin:miter;stroke-miterlimit:10;stroke-dasharray:none;stroke-opacity:1"
             d="m 0,0 c -25.402,-3.343 -39.707,-30.749 -40.643,-54.146 -1.871,-24.333 5.883,-52.542 29.012,-64.574 19.117,-9.092 44.653,-2.407 55.482,16.177 15.507,24.732 14.974,58.425 -0.268,83.158 C 34.893,-4.546 16.845,3.343 0,0 Z m -4.01,56.151 c 31.684,4.144 64.439,-8.557 86.096,-31.687 45.322,-45.186 45.456,-126.874 0.536,-172.462 -35.028,-35.828 -96.125,-40.91 -136.767,-11.899 -36.633,26.069 -53.344,74.066 -46.659,117.785 6.016,35.827 27.139,70.187 60.028,87.032 11.23,6.282 24.065,9.624 36.766,11.231 z" /></g><g
           transform="translate(232.7617,170.0596)"
           id="g84"><path
             id="path86"
             style="fill:#0181ff;fill-opacity:1;fill-rule:nonzero;stroke:none"
             d="M 0,0 C 18.984,5.48 39.706,-10.695 39.572,-30.082 42.113,-48.13 25.401,-65.51 7.486,-64.708 -8.423,-66.045 -22.861,-52.809 -25.401,-37.57 -28.744,-20.858 -16.578,-3.076 0,0" /></g><g
           transform="translate(232.7617,170.0596)"
           id="g88"><path
             id="path90"
             style="fill:none;stroke:#0181ff;stroke-width:0.094;stroke-linecap:butt;stroke-linejoin:miter;stroke-miterlimit:10;stroke-dasharray:none;stroke-opacity:1"
             d="M 0,0 C 18.984,5.48 39.706,-10.695 39.572,-30.082 42.113,-48.13 25.401,-65.51 7.486,-64.708 -8.423,-66.045 -22.861,-52.809 -25.401,-37.57 -28.744,-20.858 -16.578,-3.076 0,0 Z" /></g></g></g></g></svg>